<mxfile host="app.diagrams.net" modified="2022-09-08T08:16:46.413Z" agent="5.0 (Windows NT 10.0; Win64; x64) AppleWebKit/537.36 (KHTML, like Gecko) Chrome/105.0.0.0 Safari/537.36" etag="pB9AXv5ZQcTqqz04h5wY" version="20.2.8" type="github">
  <diagram id="npwHaXc-JAGMNIOkGilL" name="第 1 页">
    <mxGraphModel dx="2377" dy="835" grid="1" gridSize="10" guides="1" tooltips="1" connect="1" arrows="1" fold="1" page="1" pageScale="1" pageWidth="827" pageHeight="1169" math="0" shadow="0">
      <root>
        <mxCell id="0" />
        <mxCell id="1" parent="0" />
        <mxCell id="3T57iTIFEp_Tu8V2WXft-1" value="阶段1" style="rounded=0;whiteSpace=wrap;html=1;" vertex="1" parent="1">
          <mxGeometry x="-20" y="160" width="250" height="140" as="geometry" />
        </mxCell>
        <mxCell id="3T57iTIFEp_Tu8V2WXft-2" value="阶段2" style="rounded=0;whiteSpace=wrap;html=1;" vertex="1" parent="1">
          <mxGeometry x="290" y="160" width="250" height="140" as="geometry" />
        </mxCell>
        <mxCell id="3T57iTIFEp_Tu8V2WXft-3" value="" style="rounded=0;whiteSpace=wrap;html=1;" vertex="1" parent="1">
          <mxGeometry x="570" y="160" width="580" height="290" as="geometry" />
        </mxCell>
        <mxCell id="3T57iTIFEp_Tu8V2WXft-4" value="阶段4" style="rounded=0;whiteSpace=wrap;html=1;" vertex="1" parent="1">
          <mxGeometry x="1170" y="160" width="260" height="140" as="geometry" />
        </mxCell>
        <mxCell id="3T57iTIFEp_Tu8V2WXft-5" value="代码扫描" style="text;strokeColor=none;fillColor=none;html=1;fontSize=24;fontStyle=1;verticalAlign=middle;align=center;" vertex="1" parent="1">
          <mxGeometry x="800" y="170" width="100" height="40" as="geometry" />
        </mxCell>
        <mxCell id="3T57iTIFEp_Tu8V2WXft-6" value="" style="rounded=1;whiteSpace=wrap;html=1;" vertex="1" parent="1">
          <mxGeometry x="610" y="275" width="230" height="145" as="geometry" />
        </mxCell>
        <mxCell id="3T57iTIFEp_Tu8V2WXft-7" value="" style="rounded=1;whiteSpace=wrap;html=1;" vertex="1" parent="1">
          <mxGeometry x="870" y="275" width="230" height="145" as="geometry" />
        </mxCell>
        <mxCell id="3T57iTIFEp_Tu8V2WXft-8" value="sonar" style="text;html=1;strokeColor=none;fillColor=none;align=center;verticalAlign=middle;whiteSpace=wrap;rounded=0;" vertex="1" parent="1">
          <mxGeometry x="695" y="275" width="60" height="30" as="geometry" />
        </mxCell>
        <mxCell id="3T57iTIFEp_Tu8V2WXft-9" value="coverity" style="text;html=1;strokeColor=none;fillColor=none;align=center;verticalAlign=middle;whiteSpace=wrap;rounded=0;" vertex="1" parent="1">
          <mxGeometry x="955" y="275" width="60" height="30" as="geometry" />
        </mxCell>
        <mxCell id="3T57iTIFEp_Tu8V2WXft-10" value="日志" style="text;html=1;strokeColor=none;fillColor=none;align=center;verticalAlign=middle;whiteSpace=wrap;rounded=0;" vertex="1" parent="1">
          <mxGeometry x="-10" y="260" width="60" height="30" as="geometry" />
        </mxCell>
        <mxCell id="3T57iTIFEp_Tu8V2WXft-11" value="日志" style="text;html=1;strokeColor=none;fillColor=none;align=center;verticalAlign=middle;whiteSpace=wrap;rounded=0;" vertex="1" parent="1">
          <mxGeometry x="300" y="260" width="60" height="30" as="geometry" />
        </mxCell>
        <mxCell id="3T57iTIFEp_Tu8V2WXft-12" value="日志" style="text;html=1;strokeColor=none;fillColor=none;align=center;verticalAlign=middle;whiteSpace=wrap;rounded=0;" vertex="1" parent="1">
          <mxGeometry x="1190" y="260" width="60" height="30" as="geometry" />
        </mxCell>
        <mxCell id="3T57iTIFEp_Tu8V2WXft-13" value="日志" style="text;html=1;strokeColor=none;fillColor=none;align=center;verticalAlign=middle;whiteSpace=wrap;rounded=0;" vertex="1" parent="1">
          <mxGeometry x="620" y="380" width="60" height="30" as="geometry" />
        </mxCell>
        <mxCell id="3T57iTIFEp_Tu8V2WXft-14" value="日志" style="text;html=1;strokeColor=none;fillColor=none;align=center;verticalAlign=middle;whiteSpace=wrap;rounded=0;" vertex="1" parent="1">
          <mxGeometry x="880" y="380" width="60" height="30" as="geometry" />
        </mxCell>
        <mxCell id="3T57iTIFEp_Tu8V2WXft-16" value="报告" style="text;html=1;strokeColor=none;fillColor=none;align=center;verticalAlign=middle;whiteSpace=wrap;rounded=0;" vertex="1" parent="1">
          <mxGeometry x="670" y="380" width="60" height="30" as="geometry" />
        </mxCell>
        <mxCell id="3T57iTIFEp_Tu8V2WXft-17" value="报告" style="text;html=1;strokeColor=none;fillColor=none;align=center;verticalAlign=middle;whiteSpace=wrap;rounded=0;" vertex="1" parent="1">
          <mxGeometry x="930" y="380" width="60" height="30" as="geometry" />
        </mxCell>
      </root>
    </mxGraphModel>
  </diagram>
</mxfile>
